<svg width="64" height="64" viewBox="0 0 64 64" fill="none" xmlns="http://www.w3.org/2000/svg">
<rect width="64" height="64" fill="white"/>
<g clip-path="url(#clip0_30_54)">
<path d="M32 29C31.2044 29 30.4413 29.3161 29.8787 29.8787C29.3161 30.4413 29 31.2044 29 32C29 32.7956 29.3161 33.5587 29.8787 34.1213C30.4413 34.6839 31.2044 35 32 35C32.7956 35 33.5587 34.6839 34.1213 34.1213C34.6839 33.5587 35 32.7956 35 32C35 31.2044 34.6839 30.4413 34.1213 29.8787C33.5587 29.3161 32.7956 29 32 29ZM32 27C33.3261 27 34.5979 27.5268 35.5355 28.4645C36.4732 29.4021 37 30.6739 37 32C37 33.3261 36.4732 34.5979 35.5355 35.5355C34.5979 36.4732 33.3261 37 32 37C30.6739 37 29.4021 36.4732 28.4645 35.5355C27.5268 34.5979 27 33.3261 27 32C27 30.6739 27.5268 29.4021 28.4645 28.4645C29.4021 27.5268 30.6739 27 32 27ZM38.5 26.75C38.5 27.0815 38.3683 27.3995 38.1339 27.6339C37.8995 27.8683 37.5815 28 37.25 28C36.9185 28 36.6005 27.8683 36.3661 27.6339C36.1317 27.3995 36 27.0815 36 26.75C36 26.4185 36.1317 26.1005 36.3661 25.8661C36.6005 25.6317 36.9185 25.5 37.25 25.5C37.5815 25.5 37.8995 25.6317 38.1339 25.8661C38.3683 26.1005 38.5 26.4185 38.5 26.75ZM32 24C29.526 24 29.122 24.007 27.971 24.058C27.187 24.095 26.661 24.2 26.173 24.39C25.739 24.558 25.426 24.759 25.093 25.093C24.78 25.3954 24.5394 25.7646 24.389 26.173C24.199 26.663 24.094 27.188 24.058 27.971C24.006 29.075 24 29.461 24 32C24 34.474 24.007 34.878 24.058 36.029C24.095 36.812 24.2 37.339 24.389 37.826C24.559 38.261 24.759 38.574 25.091 38.906C25.428 39.242 25.741 39.443 26.171 39.609C26.665 39.8 27.191 39.906 27.971 39.942C29.075 39.994 29.461 40 32 40C34.474 40 34.878 39.993 36.029 39.942C36.811 39.905 37.338 39.8 37.826 39.611C38.259 39.442 38.574 39.241 38.906 38.909C39.243 38.572 39.444 38.259 39.61 37.829C39.8 37.336 39.906 36.809 39.942 36.029C39.994 34.925 40 34.539 40 32C40 29.526 39.993 29.122 39.942 27.971C39.905 27.189 39.8 26.661 39.61 26.173C39.4593 25.765 39.2191 25.396 38.907 25.093C38.6047 24.7798 38.2355 24.5392 37.827 24.389C37.337 24.199 36.811 24.094 36.029 24.058C34.925 24.006 34.539 24 32 24ZM32 22C34.717 22 35.056 22.01 36.122 22.06C37.187 22.11 37.912 22.277 38.55 22.525C39.21 22.779 39.766 23.123 40.322 23.678C40.8305 24.1779 41.224 24.7826 41.475 25.45C41.722 26.087 41.89 26.813 41.94 27.878C41.987 28.944 42 29.283 42 32C42 34.717 41.99 35.056 41.94 36.122C41.89 37.187 41.722 37.912 41.475 38.55C41.2247 39.2178 40.8311 39.8226 40.322 40.322C39.822 40.8303 39.2173 41.2238 38.55 41.475C37.913 41.722 37.187 41.89 36.122 41.94C35.056 41.987 34.717 42 32 42C29.283 42 28.944 41.99 27.878 41.94C26.813 41.89 26.088 41.722 25.45 41.475C24.7823 41.2245 24.1775 40.8309 23.678 40.322C23.1694 39.8222 22.7759 39.2175 22.525 38.55C22.277 37.913 22.11 37.187 22.06 36.122C22.013 35.056 22 34.717 22 32C22 29.283 22.01 28.944 22.06 27.878C22.11 26.812 22.277 26.088 22.525 25.45C22.7752 24.7822 23.1688 24.1773 23.678 23.678C24.1777 23.1692 24.7824 22.7757 25.45 22.525C26.088 22.277 26.812 22.11 27.878 22.06C28.944 22.013 29.283 22 32 22Z" fill="#29ABE2"/>
</g>
<defs>
<clipPath id="clip0_30_54">
<rect width="24" height="24" fill="white" transform="translate(20 20)"/>
</clipPath>
</defs>
</svg>
